<svg xmlns="http://www.w3.org/2000/svg" version="1.0" width="764" height="720" preserveAspectRatio="xMidYMid meet"><rect id="backgroundrect" width="100%" height="100%" x="0" y="0" fill="none" stroke="none"/>
<metadata>
Created by potrace 1.14, written by Peter Selinger 2001-2017
</metadata>

<g class="currentLayer"><title>Layer 1</title><g transform="rotate(-0.10401247441768646 382.9821166992085,375.92431640625136) translate(0,720) scale(0.10000000149011612,-0.10000000149011612) " fill="#d59541" stroke="none" id="svg_1" class="selected" fill-opacity="1">
<path d="M5842.497483893276,7101.327174158929 c-621.2088489927606,-33.66042085514214 -1177.395837784991,-137.6117205548458 -1714.5764366724507,-319.7739981238504 c-502.16882801025105,-170.28212903189555 -982.3302571833993,-416.7952111769072 -1365.4590642111407,-702.9087884456154 c-777.261313474034,-580.1472535621558 -1232.4143348777475,-1322.6565371314678 -1336.4493111985964,-2182.9772936937775 c-56.01883340353398,-461.3457681910658 -29.00975301254438,-870.2208803432336 81.02724117296879,-1212.7651631632095 c72.02421437597225,-226.71283458316324 176.05919069682108,-419.7652483111844 382.12847071696393,-711.818899848447 c243.08172351890636,-344.52430757616077 277.0931580853377,-413.82517404262995 277.0931580853377,-575.1971916716938 c0,-135.631695798661 -45.015133984982654,-254.43318116975087 -162.05448234593757,-428.67535971401605 c-62.02085126819833,-92.07115116259467 -226.0760062356907,-260.3732554383054 -326.10963731342997,-334.6241837952366 c-334.1123277996491,-249.48311927928881 -810.2724117296879,-408.8751121521678 -1372.4614183865826,-459.365743434881 c-88.02959534841054,-7.9200990247393275 -187.0628901153724,-15.840198049478655 -220.07398837102633,-16.83021042757107 l-60.020178646643544,-2.9700371342772476 l125.04203884717406,-26.73033420849523 c1624.5461687024854,-354.4244313570849 3408.1458108185757,-49.500618904620794 4626.555437345441,790.0298777177479 c828.278465323681,571.2371421593241 1328.4466207123771,1328.596611400022 1455.4893321811062,2206.7375907679952 c90.03026796996531,616.7777115515751 29.00975301254438,1126.6340862691693 -186.06255380459498,1564.2195573860172 c-65.0218602005305,134.64168342056857 -127.04271146872884,231.66289647362535 -299.1005569224404,475.2059414843597 c-208.06995264169763,295.02368867153996 -247.08306876201593,378.1847284313029 -246.08273245123854,529.6566222794424 c1.0003363107773924,99.991250187334 22.007398837102635,176.22220330045005 81.02724117296879,290.0736267810779 c266.08945866678636,514.8064366080563 891.2996529026567,847.450595647108 1752.5892164819918,932.5916601630558 c83.02791379452357,7.9200990247393275 185.06221749381757,14.850185671386242 226.0760062356907,14.850185671386242 c41.01378874187309,0 73.02455068674965,1.9800247561848314 70.02354175441747,4.95006189046208 c-9.003026796996531,9.90012378092416 -330.1109825565395,72.27090360074638 -498.1674827671414,98.01122543114917 c-337.11333673198124,51.480643660805626 -681.2290276394043,76.23095311311603 -1015.3413554390534,73.26091597883878 c-121.04069360406449,-0.990012378092416 -245.08239614046113,-2.9700371342772476 -275.0924854637829,-4.95006189046208 zm-1775.5969516298717,-2837.375475612864 c258.0867681805672,-71.28089122265395 450.15133984982657,-251.46314403547368 533.1792536443502,-499.95625093667013 c23.007735147880023,-67.32084171028428 26.008744080212203,-92.07115116259467 26.008744080212203,-219.78274793651636 c0,-127.71159677392164 -3.0010089323321774,-152.46190622623206 -26.008744080212203,-219.78274793651636 c-121.04069360406449,-360.36450562563937 -488.1641196593675,-580.1472535621558 -848.2851915392288,-508.86636233950173 c-163.05481865671499,32.670408477049726 -274.0921491530055,91.08113878450226 -391.1314975139604,203.9425498870377 c-299.1005569224404,291.0636391591703 -299.1005569224404,758.3494816187906 0,1049.4131207779608 c112.03766680706796,107.91134921207335 224.07533361413593,168.3021042757107 376.12645285229956,201.96252513085287 c82.02757748374619,17.820222805663487 251.08441400512552,14.850185671386242 330.1109825565395,-6.9300866466469095 z" id="svg_2" fill="#d59541" fill-opacity="1" class=""/>
</g></g></svg>